<?xml version="1.0" encoding="UTF-8" standalone="no"?>
<!-- Created with Inkscape (http://www.inkscape.org/) -->

<svg
   width="210mm"
   height="297mm"
   viewBox="0 0 210 297"
   version="1.1"
   id="svg2172"
   inkscape:version="1.2 (dc2aedaf03, 2022-05-15)"
   sodipodi:docname="font.svg"
   xmlns:inkscape="http://www.inkscape.org/namespaces/inkscape"
   xmlns:sodipodi="http://sodipodi.sourceforge.net/DTD/sodipodi-0.dtd"
   xmlns="http://www.w3.org/2000/svg"
   xmlns:svg="http://www.w3.org/2000/svg">
  <sodipodi:namedview
     id="namedview2174"
     pagecolor="#ffffff"
     bordercolor="#000000"
     borderopacity="0.25"
     inkscape:showpageshadow="2"
     inkscape:pageopacity="0.0"
     inkscape:pagecheckerboard="0"
     inkscape:deskcolor="#d1d1d1"
     inkscape:document-units="mm"
     showgrid="false"
     inkscape:zoom="1.5358305"
     inkscape:cx="486.70735"
     inkscape:cy="475.31286"
     inkscape:window-width="1920"
     inkscape:window-height="1017"
     inkscape:window-x="1192"
     inkscape:window-y="457"
     inkscape:window-maximized="1"
     inkscape:current-layer="layer1" />
  <defs
     id="defs2169" />
  <g
     inkscape:label="Layer 1"
     inkscape:groupmode="layer"
     id="layer1">
    <path
       d="m 92.176121,97.865113 0.188553,-0.52444 0.188553,-0.522183 0.188392,-0.51944 0.186886,-0.514686 0.188554,-0.502431 0.188553,-0.495175 0.188553,-0.480423 0.188553,-0.468166 0.188393,-0.450913 0.186884,-0.433659 0.188554,-0.411895 0.188554,-0.39214 0.188552,-0.370132 0.188555,-0.343123 0.188391,-0.318615 0.188554,-0.291606 0.186885,-0.262097 0.188554,-0.235334 0.188553,-0.20107 0.188553,-0.174061 0.188392,-0.139554 0.188554,-0.10779 0.188553,-0.07353 0.186885,-0.04177 0.188553,-0.0097 0.188553,0.02701 0.188393,0.05627 0.188554,0.09304 0.188552,0.122544 0.186887,0.157052 0.188552,0.186071 0.188554,0.22058 0.188392,0.247588 0.188553,0.277095 0.188555,0.303861 0.188552,0.333369 0.186885,0.355378 0.188553,0.379885 0.188394,0.404396 0.188553,0.423904 0.188553,0.441159 0.188558,0.458413 0.18688,0.475421 0.18855,0.487677 0.1884,0.499931 0.18855,0.509929 0.18855,0.514686 0.18856,0.521938 0.18855,0.52444 0.18688,0.526939 0.1884,0.52444 0.18855,0.522184 0.18855,0.514685 0.18856,0.509685 0.18855,0.49993 0.18839,0.48792 0.18689,0.47543 0.18855,0.45816 0.18855,0.44116 0.18856,0.42415 0.18855,0.40439 0.18839,0.37989 0.18689,0.35538 0.18855,0.33337 0.18856,0.30386 0.18855,0.27685 0.18855,0.24759 0.18839,0.22058 0.18856,0.18631 0.18688,0.15681 0.18856,0.12254 0.18855,0.093 0.18855,0.0565 0.1884,0.027 0.18855,-0.01 0.18688,-0.0415 0.18856,-0.0735 0.18855,-0.10779 0.18855,-0.13979 0.1884,-0.17407 0.18855,-0.20082 0.18855,-0.23534 0.18689,-0.26234 0.18855,-0.2916 0.18855,-0.31862 0.1884,-0.34312 0.18855,-0.37013 0.18855,-0.39215 0.18856,-0.41164 0.18688,-0.43391 0.18856,-0.45091 0.18839,-0.46817 0.18855,-0.48042 0.18855,-0.49493 0.18856,-0.502429 0.18688,-0.514686 0.18856,-0.519684 0.18839,-0.52194 0.18855,-0.524439"
       style="fill:none;stroke:#000000;stroke-width:1.42179;stroke-linecap:butt;stroke-linejoin:miter;stroke-miterlimit:10;stroke-dasharray:none;stroke-opacity:1"
       id="path253" />
    <path
       style="fill:none;stroke:#000000;stroke-width:1.4;stroke-dasharray:none;stroke-opacity:1"
       d="m 120.20821,105.30992 h 1.90543 V 90.422991 h 7.88693 v 14.886929 h 7.88692 V 90.422991 h 1.90543"
       id="path1608-6" />
    <path
       style="fill:none;stroke:#000000;stroke-width:1.4;stroke-dasharray:none;stroke-opacity:1"
       d="m 96.955498,132.05152 2.179131,4.77062 v -14.91865 l 6.891451,14.91865 v -14.91865 l 6.89145,14.91865 v -14.91865 l 2.17913,4.77063"
       id="path1755-8" />
    <path
       style="fill:none;stroke:#000000;stroke-width:1.4;stroke-dasharray:none;stroke-opacity:1"
       d="m 122.96578,133.25286 1.93611,3.72174 7.88693,-14.88694 7.88692,14.88694 1.95272,-3.72174"
       id="path2003-8" />
  </g>
</svg>
